PathFileType	3	(X/Y/Z)	squats_2__view2_aligned.trc
DataRate	CameraRate	NumFrames	NumMarkers	Units	OrigDataRate	OrigDataStartFrame	OrigNumFrames
100.0	100.0	18	19	mm	100.0	117	1550
Frame#	Time	pelvis			neck			head			hip_left			hip_right			knee_left			knee_right			ankle_left			ankle_right			heel_left			heel_right			toe_left			toe_right			shoulder_left			shoulder_right			elbow_left			elbow_right			wrist_left			wrist_right			
		X1	Y1	Z1	X2	Y2	Z2	X3	Y3	Z3	X4	Y4	Z4	X5	Y5	Z5	X6	Y6	Z6	X7	Y7	Z7	X8	Y8	Z8	X9	Y9	Z9	X10	Y10	Z10	X11	Y11	Z11	X12	Y12	Z12	X13	Y13	Z13	X14	Y14	Z14	X15	Y15	Z15	X16	Y16	Z16	X17	Y17	Z17	X18	Y18	Z18	X19	Y19	Z19	
117	1.16000	173.543788	968.505680	-41.154521	143.641595	1514.957956	-65.242255	129.774234	1648.984031	-171.257054	103.490960	962.291505	-39.040595	243.596615	974.719856	-43.268446	70.792263	551.703517	-30.815108	268.430182	563.475017	-42.663830	52.948849	176.268897	65.679988	281.100154	184.632600	41.617100	53.058333	134.046445	102.784457	277.509294	140.490435	77.389956	57.247413	104.639510	-105.956084	296.950403	123.120072	-131.834503	-16.856428	1470.058472	-27.253709	316.642246	1457.312360	-46.217985	-179.231135	1238.002374	-95.913091	424.438509	1193.194661	-69.162810	-302.279643	1285.959518	-310.059243	273.818848	1240.735431	-250.825294
118	1.17000	171.438824	968.059481	-41.812256	141.923406	1514.242905	-65.356572	128.079474	1648.350791	-171.109041	101.373092	961.830164	-39.810881	241.504556	974.288798	-43.813632	69.010117	551.420860	-31.402514	266.962176	563.292890	-43.393055	51.387936	176.224467	65.328208	280.022184	184.755831	41.302207	51.521734	134.036899	102.446485	276.418501	140.672560	77.120723	55.554554	104.628647	-106.299736	296.225408	123.125961	-132.056558	-18.741379	1469.528218	-27.868796	314.880507	1456.249248	-46.370453	-180.240874	1237.686733	-98.212050	420.549440	1192.030111	-71.812814	-301.805213	1287.333629	-312.656064	271.249622	1242.438540	-253.985323
119	1.18000	169.333860	967.613281	-42.469992	140.205217	1513.527855	-65.470890	126.384715	1647.717552	-170.961029	99.255224	961.368822	-40.581166	239.412497	973.857741	-44.358818	67.227971	551.138203	-31.989921	265.494170	563.110763	-44.122279	49.827022	176.180037	64.976429	278.944214	184.879062	40.987314	49.985134	134.027352	102.108513	275.327708	140.854686	76.851491	53.861696	104.617784	-106.643389	295.500414	123.131851	-132.278613	-20.626331	1468.997965	-28.483882	313.118768	1455.186135	-46.522922	-181.250613	1237.371092	-100.511009	416.660372	1190.865561	-74.462818	-301.330783	1288.707740	-315.252884	268.680395	1244.141648	-257.145353
120	1.19000	167.228897	967.167082	-43.127728	138.487027	1512.812804	-65.585207	124.689955	1647.084313	-170.813016	97.137356	960.907481	-41.351451	237.320437	973.426683	-44.904005	65.445826	550.855545	-32.577328	264.026164	562.928636	-44.851503	48.266109	176.135608	64.624649	277.866245	185.002294	40.672421	48.448535	134.017805	101.770540	274.236915	141.036812	76.582258	52.168838	104.606921	-106.987041	294.775419	123.137740	-132.500668	-22.511282	1468.467711	-29.098968	311.357029	1454.123023	-46.675390	-182.260352	1237.055451	-102.809968	412.771304	1189.701011	-77.112822	-300.856353	1290.081852	-317.849705	266.111169	1245.844757	-260.305382
121	1.20000	165.123933	966.720882	-43.785464	136.768838	1512.097753	-65.699524	122.995196	1646.451074	-170.665004	95.019488	960.446140	-42.121736	235.228378	972.995625	-45.449191	63.663680	550.572888	-33.164735	262.558158	562.746509	-45.580728	46.705196	176.091178	64.272870	276.788275	185.125525	40.357529	46.911935	134.008258	101.432568	273.146122	141.218938	76.313026	50.475980	104.596059	-107.330693	294.050424	123.143630	-132.722724	-24.396234	1467.937457	-29.714055	309.595289	1453.059910	-46.827859	-183.270091	1236.739811	-105.108927	408.882236	1188.536461	-79.762827	-300.381923	1291.455963	-320.446526	263.541943	1247.547866	-263.465412
122	1.21000	163.018969	966.274683	-44.443199	135.050649	1511.382702	-65.813842	121.300436	1645.817835	-170.516991	92.901620	959.984799	-42.892021	233.136318	972.564567	-45.994377	61.881534	550.290231	-33.752142	261.090152	562.564382	-46.309952	45.144282	176.046748	63.921090	275.710305	185.248756	40.042636	45.375336	133.998712	101.094596	272.055329	141.401064	76.043793	48.783122	104.585196	-107.674345	293.325430	123.149519	-132.944779	-26.281185	1467.407203	-30.329141	307.833550	1451.996797	-46.980327	-184.279830	1236.424170	-107.407885	404.993167	1187.371912	-82.412831	-299.907493	1292.830074	-323.043346	260.972716	1249.250975	-266.625441
123	1.22000	160.914006	965.828483	-45.100935	133.332460	1510.667652	-65.928159	119.605677	1645.184596	-170.368979	90.783753	959.523458	-43.662307	231.044259	972.133509	-46.539564	60.099388	550.007574	-34.339549	259.622146	562.382255	-47.039176	43.583369	176.002318	63.569311	274.632335	185.371988	39.727743	43.838736	133.989165	100.756624	270.964536	141.583190	75.774561	47.090264	104.574333	-108.017998	292.600435	123.155408	-133.166834	-28.166136	1466.876949	-30.944228	306.071811	1450.933685	-47.132796	-185.289568	1236.108529	-109.706844	401.104099	1186.207362	-85.062835	-299.433063	1294.204186	-325.640167	258.403490	1250.954083	-269.785470
124	1.23000	158.809042	965.382284	-45.758671	131.614271	1509.952601	-66.042477	117.910917	1644.551356	-170.220967	88.665885	959.062116	-44.432592	228.952200	971.702452	-47.084750	58.317243	549.724916	-34.926956	258.154140	562.200128	-47.768400	42.022455	175.957889	63.217531	273.554365	185.495219	39.412850	42.302137	133.979618	100.418652	269.873743	141.765316	75.505328	45.397405	104.563470	-108.361650	291.875440	123.161298	-133.388889	-30.051088	1466.346696	-31.559314	304.310072	1449.870572	-47.285264	-186.299307	1235.792888	-112.005803	397.215031	1185.042812	-87.712839	-298.958633	1295.578297	-328.236988	255.834264	1252.657192	-272.945500
125	1.24000	156.704079	964.936084	-46.416407	129.896082	1509.237550	-66.156794	116.216158	1643.918117	-170.072954	86.548017	958.600775	-45.202877	226.860140	971.271394	-47.629936	56.535097	549.442259	-35.514363	256.686134	562.018001	-48.497625	40.461542	175.913459	62.865752	272.476395	185.618451	39.097957	40.765537	133.970071	100.080679	268.782950	141.947442	75.236096	43.704547	104.552607	-108.705302	291.150446	123.167187	-133.610944	-31.936039	1465.816442	-32.174400	302.548333	1448.807460	-47.437733	-187.309046	1235.477247	-114.304762	393.325963	1183.878262	-90.362844	-298.484203	1296.952408	-330.833808	253.265037	1254.360301	-276.105529
126	1.25000	154.599115	964.489885	-47.074142	128.177893	1508.522499	-66.271112	114.521398	1643.284878	-169.924942	84.430149	958.139434	-45.973162	224.768081	970.840336	-48.175122	54.752951	549.159602	-36.101770	255.218127	561.835874	-49.226849	38.900628	175.869029	62.513973	271.398425	185.741682	38.783065	39.228938	133.960524	99.742707	267.692157	142.129567	74.966864	42.011689	104.541744	-109.048954	290.425451	123.173077	-133.832999	-33.820991	1465.286188	-32.789487	300.786593	1447.744347	-47.590201	-188.318785	1235.161607	-116.603721	389.436895	1182.713712	-93.012848	-298.009773	1298.326520	-333.430629	250.695811	1256.063409	-279.265558
127	1.26000	152.494151	964.043685	-47.731878	126.459704	1507.807448	-66.385429	112.826639	1642.651639	-169.776929	82.312281	957.678093	-46.743448	222.676021	970.409278	-48.720309	52.970806	548.876945	-36.689176	253.750121	561.653747	-49.956073	37.339715	175.824600	62.162193	270.320455	185.864913	38.468172	37.692338	133.950978	99.404735	266.601364	142.311693	74.697631	40.318831	104.530881	-109.392607	289.700456	123.178966	-134.055054	-35.705942	1464.755934	-33.404573	299.024854	1446.681235	-47.742669	-189.328524	1234.845966	-118.902680	385.547826	1181.549162	-95.662852	-297.535343	1299.700631	-336.027450	248.126585	1257.766518	-282.425588
128	1.27000	150.684926	963.707128	-48.206164	124.926879	1507.252375	-66.457981	111.254515	1642.112831	-169.678695	80.488834	957.331378	-47.295704	220.881064	970.082872	-49.116617	51.456730	548.662399	-37.122901	252.445095	561.517761	-50.520108	36.031371	175.781364	61.868717	269.332882	185.960386	38.202393	36.402689	133.930353	99.117553	265.606161	142.449719	74.463027	38.946039	104.532600	-109.680965	288.991041	123.190127	-134.250039	-37.384548	1464.360659	-33.911229	297.472306	1445.912961	-47.895435	-189.938127	1234.496272	-120.755919	382.361071	1180.712299	-97.746488	-295.936554	1300.442941	-337.995607	245.789600	1258.737038	-284.839608
129	1.28000	148.875701	963.370570	-48.680450	123.394054	1506.697301	-66.530533	109.682391	1641.574024	-169.580461	78.665387	956.984663	-47.847960	219.086106	969.756465	-49.512926	49.942655	548.447853	-37.556626	251.140068	561.381774	-51.084142	34.723028	175.738129	61.575241	268.345308	186.055858	37.936614	35.113040	133.909729	98.830372	264.610959	142.587744	74.228422	37.573247	104.534318	-109.969324	288.281626	123.201287	-134.445023	-39.063154	1463.965384	-34.417884	295.919757	1445.144688	-48.048201	-190.547730	1234.146578	-122.609158	379.174315	1179.875436	-99.830125	-294.337766	1301.185251	-339.963763	243.452615	1259.707558	-287.253628
130	1.29000	147.066476	963.034012	-49.154736	121.861228	1506.142227	-66.603085	108.110268	1641.035217	-169.482228	76.841940	956.637948	-48.400216	217.291148	969.430058	-49.909234	48.428579	548.233307	-37.990351	249.835042	561.245788	-51.648177	33.414684	175.694893	61.281764	267.357734	186.151331	37.670835	33.823390	133.889105	98.543191	263.615757	142.725769	73.993818	36.200455	104.536036	-110.257683	287.572211	123.212448	-134.640008	-40.741759	1463.570109	-34.924540	294.367209	1444.376414	-48.200967	-191.157333	1233.796885	-124.462397	375.987559	1179.038573	-101.913761	-292.738977	1301.927560	-341.931920	241.115630	1260.678078	-289.667648
131	1.30000	145.257251	962.697455	-49.629022	120.328403	1505.587153	-66.675636	106.538144	1640.496409	-169.383994	75.018492	956.291233	-48.952472	215.496190	969.103652	-50.305543	46.914504	548.018762	-38.424076	248.530015	561.109801	-52.212211	32.106340	175.651658	60.988288	266.370160	186.246803	37.405056	32.533741	133.868481	98.256009	262.620554	142.863794	73.759213	34.827663	104.537754	-110.546041	286.862796	123.223609	-134.834992	-42.420365	1463.174835	-35.431195	292.814660	1443.608141	-48.353732	-191.766936	1233.447191	-126.315635	372.800803	1178.201710	-103.997397	-291.140189	1302.669870	-343.900077	238.778646	1261.648598	-292.081667
132	1.31000	143.448026	962.360897	-50.103308	118.795578	1505.032079	-66.748188	104.966020	1639.957602	-169.285760	73.195045	955.944518	-49.504728	213.701232	968.777245	-50.701852	45.400428	547.804216	-38.857801	247.224988	560.973815	-52.776246	30.797997	175.608422	60.694812	265.382586	186.342276	37.139277	31.244091	133.847857	97.968828	261.625352	143.001819	73.524609	33.454871	104.539473	-110.834400	286.153380	123.234769	-135.029976	-44.098971	1462.779560	-35.937851	291.262112	1442.839868	-48.506498	-192.376539	1233.097498	-128.168874	369.614047	1177.364847	-106.081033	-289.541400	1303.412180	-345.868233	236.441661	1262.619118	-294.495687
133	1.32000	141.638801	962.024339	-50.577594	117.262753	1504.477005	-66.820740	103.393896	1639.418795	-169.187526	71.371598	955.597803	-50.056984	211.906274	968.450839	-51.098160	43.886353	547.589670	-39.291526	245.919962	560.837829	-53.340281	29.489653	175.565187	60.401335	264.395012	186.437748	36.873498	29.954442	133.827233	97.681647	260.630150	143.139844	73.290004	32.082079	104.541191	-111.122759	285.443965	123.245930	-135.224961	-45.777577	1462.384285	-36.444506	289.709563	1442.071594	-48.659264	-192.986143	1232.747804	-130.022113	366.427292	1176.527983	-108.164670	-287.942611	1304.154489	-347.836390	234.104676	1263.589637	-296.909707
134	1.33000	139.829576	961.687781	-51.051880	115.729928	1503.921931	-66.893292	101.821773	1638.879987	-169.089292	69.548151	955.251088	-50.609240	210.111316	968.124432	-51.494469	42.372277	547.375124	-39.725251	244.614935	560.701842	-53.904315	28.181309	175.521951	60.107859	263.407439	186.533220	36.607719	28.664793	133.806608	97.394465	259.634948	143.277870	73.055400	30.709287	104.542909	-111.411117	284.734550	123.257091	-135.419945	-47.456182	1461.989010	-36.951162	288.157014	1441.303321	-48.812029	-193.595746	1232.398110	-131.875352	363.240536	1175.691120	-110.248306	-286.343823	1304.896799	-349.804547	231.767692	1264.560157	-299.323727
